:SAMPLES-PER-SECOND 30
:FULLY-SPECIFIED
:DEGREES
219
root  5.964288937 40.04244466 2.080511108 -1.473999023 -51.0059967 -0.4140014648
lowerback  12.2986002 3.117880106 -4.552090168
upperback  4.275839806 3.457730055 -0.7175729871
thorax  -2.621880054 1.662449956 1.31201005
lowerneck  -5.882649899 8.241729736 -0.45025599
upperneck  4.373439789 10.96220016 1.42730999
head  2.27222991 5.492720127 0.9270920157
lclavicle  0 -9.442270133e-015 7.951389973e-016
lhumerus  2.506629944 -14.57439995 79.27780151
lradius  2.691162651e-031 -2.286151269e-031 139.6519928
lwrist  -7.062250077e-031 -1.765562519e-031 6.01402998
lhand  -1.496451383e-031 -27.76390076 20.11240005
lfingers  90 7.125020027 -90
lthumb  89.89689403 5.08795885 91.16245106
rclavicle  0 -9.442270133e-015 7.951389973e-016
rhumerus  10.0994997 19.1996994 -76.7845993
rradius  -2.6241373e-031 2.362783838e-031 138
rwrist  7.062250077e-031 -0 -10.42889977
rhand  -7.920061211e-032 -33.2840004 9.303460121
rfingers  -90 -7.125020027 -90
rthumb  -92.93752616 -24.25625642 -97.11982154
rfemur  -20.53429985 7.944749832 7.762849808
rtibia  -0 0 59.36909866
rfoot  -6.750825323e-032 -11.26089954 -1.697190046
rtoes  5.373923086 19.29304026 -105.8922705
lfemur  -24.67149925 -0.8066220284 -3.937220097
ltibia  -0 0 56.78509903
lfoot  4.422180917e-032 -3.505589962 4.729929924
ltoes  -4.250644065 -19.5611806 -102.515957
220
root  6.051600073 40.26600094 2.049220078 -0.8610229492 -51.52200317 -0.1779785156
lowerback  12.44489956 2.961630106 -4.542739868
upperback  4.341879845 3.247149944 -0.5897780061
thorax  -2.626889944 1.55527997 1.466899991
lowerneck  -5.711669922 8.425629616 -0.0761931017
upperneck  3.8838799 11.19880009 1.050780058
head  2.121020079 5.607049942 0.734465003
lclavicle  0 -9.442270133e-015 7.951389973e-016
lhumerus  2.595779896 -14.3277998 78.97039795
lradius  2.687048642e-031 -2.290985297e-031 139.548996
lwrist  0 -3.531125038e-031 6.003200054
lhand  -1.496451383e-031 -27.76390076 20.11240005
lfingers  90 7.125020027 -90
lthumb  89.89689403 5.08795885 91.16245106
rclavicle  0 -9.442270133e-015 7.951389973e-016
rhumerus  10.41149998 19.52750015 -76.5522995
rradius  -2.632163868e-031 2.353838867e-031 138.1950073
rwrist  7.062250077e-031 -1.765562519e-031 -10.89190006
rhand  -7.920061211e-032 -33.2840004 9.303460121
rfingers  -90 -7.125020027 -90
rthumb  -92.93752616 -24.25625642 -97.11982154
rfemur  -21.4939003 8.373749733 7.60240984
rtibia  -0 0 58.46469879
rfoot  -4.503187515e-032 -11.42819977 -1.800310016
rtoes  5.373923086 19.29304026 -105.8922705
lfemur  -25.33779907 -0.6610220075 -4.430069923
ltibia  -0 0 56.25490189
lfoot  4.422353206e-032 -3.541840076 2.311170101
ltoes  -4.250644065 -19.5611806 -102.515957
221
root  6.131799953 40.45266579 2.029704484 -0.1199951172 -52.07900238 -0.08801269531
lowerback  12.49559975 2.847330093 -4.441090107
upperback  4.332129955 3.11067009 -0.4299759865
thorax  -2.66031003 1.487920046 1.594810009
lowerneck  -5.377110004 8.592450142 0.3417429924
upperneck  3.467080116 11.40999985 0.6654840112
head  1.971310019 5.70897007 0.5272809863
lclavicle  0 -9.442270133e-015 7.951389973e-016
lhumerus  2.505259991 -14.29220009 78.87789917
lradius  2.683166221e-031 -2.295531108e-031 139.4519958
lwrist  -7.062250077e-031 -1.765562519e-031 5.989679813
lhand  -1.496451383e-031 -27.76390076 20.11240005
lfingers  90 7.125020027 -90
lthumb  89.89689403 5.08795885 91.16245106
rclavicle  0 -9.442270133e-015 7.951389973e-016
rhumerus  10.56739998 20.29759979 -76.41459656
rradius  -2.624054867e-031 2.362875386e-031 137.9980011
rwrist  0 -0 -10.76830006
rhand  -7.920061211e-032 -33.2840004 9.303460121
rfingers  -90 -7.125020027 -90
rthumb  -92.93752616 -24.25625642 -97.11982154
rfemur  -22.44260025 8.870479584 7.589580059
rtibia  -0 0 57.58959961
rfoot  -4.505942201e-032 -11.6001997 -1.99443996
rtoes  5.373923086 19.29304026 -105.8922705
lfemur  -25.99810028 -0.5017849803 -4.87443018
ltibia  -0 0 55.68980026
lfoot  5.526253529e-032 -3.246819973 1.052180052
ltoes  -4.250644065 -19.5611806 -102.515957
222
root  6.20482212 40.62244385 2.009944465 0.5440063477 -52.64600372 0.06097412109
lowerback  12.5230999 2.770319939 -4.36164999
upperback  4.319779873 3.021349907 -0.2917689979
thorax  -2.686389923 1.443879962 1.706500053
lowerneck  -5.130740166 8.738419533 0.5954650044
upperneck  3.089950085 11.60000038 0.4053690135
head  1.835569978 5.801509857 0.389910996
lclavicle  0 -9.442270133e-015 7.951389973e-016
lhumerus  2.455280066 -14.24540043 78.83260345
lradius  2.677187449e-031 -2.302501118e-031 139.3029938
lwrist  -1.412450015e-030 -1.765562519e-031 6.107820034
lhand  -1.496451383e-031 -27.76390076 20.11240005
lfingers  90 7.125020027 -90
lthumb  89.89689403 5.08795885 91.16245106
rclavicle  0 -9.442270133e-015 7.951389973e-016
rhumerus  10.61789989 20.75279999 -76.17720032
rradius  -2.628874649e-031 2.357511849e-031 138.1150055
rwrist  0 -1.765562519e-031 -11.60200024
rhand  -7.920061211e-032 -33.2840004 9.303460121
rfingers  -90 -7.125020027 -90
rthumb  -92.93752616 -24.25625642 -97.11982154
rfemur  -23.29929924 9.419230461 7.593939781
rtibia  -0 0 56.71160126
rfoot  -4.508004432e-032 -11.72719955 -2.364959955
rtoes  5.373923086 19.29304026 -105.8922705
lfemur  -26.52840042 -0.3031029999 -5.432499886
ltibia  -0 0 55.09640121
lfoot  4.420175766e-032 -3.052000046 0.851015985
ltoes  -4.250644065 -19.5611806 -102.515957
